<svg width="657.9px" height="121.3px" xmlns="http://www.w3.org/2000/svg" viewBox="-78.96251220703124 14.34007720947266 657.9250244140625 121.31984558105468" style="background: rgba(0, 0, 0, 0)" preserveAspectRatio="xMidYMid"><defs><linearGradient id="editing-gradient-gradient" x1="0" x2="1" y1="0.5" y2="0.5" gradientUnits="objectBoundingBox"><stop offset="0" stop-color="#51b3e6"></stop><stop offset="1" stop-color="#e64dde"></stop></linearGradient></defs><g><g transform="matrix(1.3,0,0,1.6,-39,194.9)"><path d="M -5.3 -61.6 L -19.3 -61.6 L -11.2 -103.9 L 2.9 -103.9 L -5.3 -61.6 Z M 50.4 -60.4 L 50.4 -60.4 L 50.4 -60.4 Q 42.7 -60.4 42.7 -66.4 L 42.7 -66.4 L 42.7 -66.4 Q 42.7 -69 43.8 -74.1 L 43.8 -74.1 L 43.8 -74.1 Q 44.9 -79.2 45.3 -81.2 L 45.3 -81.2 L 45.3 -81.2 Q 46.2 -85.9 46.2 -87.4 L 46.2 -87.4 L 46.2 -87.4 Q 46.2 -90.6 43.8 -90.6 L 43.8 -90.6 L 43.8 -90.6 Q 42.2 -90.6 40.6 -88.4 L 40.6 -88.4 L 40.6 -88.4 Q 39.1 -86.2 38.4 -81.8 L 38.4 -81.8 L 34.4 -61.6 L 21.9 -60.4 L 25.4 -77.8 L 25.4 -77.8 Q 26 -80.7 26.5 -83.9 L 26.5 -83.9 L 26.5 -83.9 Q 27 -87.2 27 -87.7 L 27 -87.7 L 27 -87.7 Q 27 -90.6 24.8 -90.6 L 24.8 -90.6 L 24.8 -90.6 Q 23.3 -90.6 21.7 -88.5 L 21.7 -88.5 L 21.7 -88.5 Q 20.1 -86.3 19.2 -81.8 L 19.2 -81.8 L 15.3 -61.6 L 2.7 -60.4 L 9.5 -94.3 L 19.9 -95.6 L 18.8 -89.1 L 18.8 -89.1 Q 20.5 -92.6 23.5 -94.1 L 23.5 -94.1 L 23.5 -94.1 Q 26.6 -95.6 31.4 -95.6 L 31.4 -95.6 L 31.4 -95.6 Q 34.2 -95.6 36 -94.2 L 36 -94.2 L 36 -94.2 Q 37.7 -92.9 38.3 -90.7 L 38.3 -90.7 L 38.3 -90.7 Q 39.4 -92.9 42.2 -94.3 L 42.2 -94.3 L 42.2 -94.3 Q 45 -95.6 48.4 -95.6 L 48.4 -95.6 L 48.4 -95.6 Q 51.8 -95.6 53.5 -94.8 L 53.5 -94.8 L 53.5 -94.8 Q 55.2 -94.1 56.2 -92.9 L 56.2 -92.9 L 56.2 -92.9 Q 58 -90.6 58 -86.5 L 58 -86.5 L 58 -86.5 Q 58 -82.5 56.2 -74.1 L 56.2 -74.1 L 56.2 -74.1 Q 55.3 -70 55.3 -68.5 L 55.3 -68.5 L 55.3 -68.5 Q 55.3 -67 56.2 -66.1 L 56.2 -66.1 L 56.2 -66.1 Q 57.1 -65.2 58.4 -65.1 L 58.4 -65.1 L 58.4 -65.1 Q 57.7 -62.9 55.5 -61.6 L 55.5 -61.6 L 55.5 -61.6 Q 53.3 -60.4 50.4 -60.4 Z M 66.1 -63.6 L 66.1 -63.6 L 66.1 -63.6 Q 64.6 -65.2 63.9 -67.9 L 63.9 -67.9 L 63.9 -67.9 Q 63.2 -70.5 63.2 -74.8 L 63.2 -74.8 L 63.2 -74.8 Q 63.2 -79.1 64.7 -83 L 64.7 -83 L 64.7 -83 Q 66.2 -86.9 68.8 -89.7 L 68.8 -89.7 L 68.8 -89.7 Q 74.4 -95.6 83.4 -95.6 L 83.4 -95.6 L 83.4 -95.6 Q 86.7 -95.6 89.1 -94.5 L 89.1 -94.5 L 100 -95.6 L 95.3 -70.6 L 95.3 -70.6 Q 95.1 -69.8 95.1 -68.4 L 95.1 -68.4 L 95.1 -68.4 Q 95.1 -67 96 -66.1 L 96 -66.1 L 96 -66.1 Q 96.8 -65.2 98.1 -65.1 L 98.1 -65.1 L 98.1 -65.1 Q 97.5 -62.9 95.1 -61.6 L 95.1 -61.6 L 95.1 -61.6 Q 92.8 -60.4 90.2 -60.4 L 90.2 -60.4 L 90.2 -60.4 Q 87.5 -60.4 85.8 -61.4 L 85.8 -61.4 L 85.8 -61.4 Q 84 -62.3 83.5 -64 L 83.5 -64 L 83.5 -64 Q 82.5 -62.4 80.3 -61.4 L 80.3 -61.4 L 80.3 -61.4 Q 78.1 -60.4 75.2 -60.4 L 75.2 -60.4 L 75.2 -60.4 Q 72.3 -60.4 69.9 -61.1 L 69.9 -61.1 L 69.9 -61.1 Q 67.6 -61.9 66.1 -63.6 Z M 79.6 -89.5 L 79.6 -89.5 L 79.6 -89.5 Q 78.8 -88.4 78.2 -86.4 L 78.2 -86.4 L 78.2 -86.4 Q 77.6 -84.5 76.5 -79.3 L 76.5 -79.3 L 76.5 -79.3 Q 75.4 -74.1 75.4 -70.3 L 75.4 -70.3 L 75.4 -70.3 Q 75.4 -66.6 76 -65.5 L 76 -65.5 L 76 -65.5 Q 76.6 -64.5 77.6 -64.5 L 77.6 -64.5 L 77.6 -64.5 Q 79.7 -64.5 81.2 -66.4 L 81.2 -66.4 L 81.2 -66.4 Q 82.7 -68.4 83.2 -71.8 L 83.2 -71.8 L 86.6 -90.6 L 86.6 -90.6 Q 85.3 -91.7 83.7 -91.7 L 83.7 -91.7 L 83.7 -91.7 Q 82.2 -91.7 81.2 -91.2 L 81.2 -91.2 L 81.2 -91.2 Q 80.3 -90.7 79.6 -89.5 Z M 107.8 -88.4 L 107.8 -88.4 L 107.8 -88.4 Q 109.9 -91.5 113.2 -93.5 L 113.2 -93.5 L 113.2 -93.5 Q 116.5 -95.6 120.6 -95.6 L 120.6 -95.6 L 120.6 -95.6 Q 124.6 -95.6 126.5 -94.3 L 126.5 -94.3 L 139.1 -95.6 L 134.7 -71 L 134.7 -71 Q 132.5 -58.4 127.7 -53.5 L 127.7 -53.5 L 127.7 -53.5 Q 123.2 -48.8 114.4 -48.8 L 114.4 -48.8 L 114.4 -48.8 Q 107.6 -48.8 103.8 -51 L 103.8 -51 L 103.8 -51 Q 100 -53.1 100 -56.6 L 100 -56.6 L 100 -56.6 Q 100 -59.2 101.9 -60.7 L 101.9 -60.7 L 101.9 -60.7 Q 103.9 -62.2 107 -62.2 L 107 -62.2 L 107 -62.2 Q 109.7 -62.2 111.7 -61 L 111.7 -61 L 111.7 -61 Q 112.9 -60.4 113.5 -59.5 L 113.5 -59.5 L 113.5 -59.5 Q 112 -58.2 112 -56.1 L 112 -56.1 L 112 -56.1 Q 112 -53.3 114.6 -53.3 L 114.6 -53.3 L 114.6 -53.3 Q 118.9 -53.3 121.3 -63.4 L 121.3 -63.4 L 121.3 -63.4 Q 122 -66.2 122.6 -68.9 L 122.6 -68.9 L 122.6 -68.9 Q 119.7 -65.4 113.2 -65.4 L 113.2 -65.4 L 113.2 -65.4 Q 108.7 -65.4 106 -67.6 L 106 -67.6 L 106 -67.6 Q 103.4 -69.8 103.4 -74.9 L 103.4 -74.9 L 103.4 -74.9 Q 103.4 -78.1 104.5 -81.7 L 104.5 -81.7 L 104.5 -81.7 Q 105.6 -85.3 107.8 -88.4 Z M 116.1 -74.7 L 116.1 -74.7 L 116.1 -74.7 Q 116.1 -70.3 118.3 -70.3 L 118.3 -70.3 L 118.3 -70.3 Q 119.9 -70.3 121.3 -72 L 121.3 -72 L 121.3 -72 Q 122.5 -73.4 122.9 -75.3 L 122.9 -75.3 L 126.2 -91.8 L 126.2 -91.8 Q 125.9 -91.9 125.6 -92 L 125.6 -92 L 125.6 -92 Q 124.9 -92.2 124.1 -92.2 L 124.1 -92.2 L 124.1 -92.2 Q 120.2 -92.2 117.9 -85.8 L 117.9 -85.8 L 117.9 -85.8 Q 116.1 -80.8 116.1 -74.7 Z M 167.5 -72.5 L 167.5 -72.5 L 167.5 -72.5 Q 169.1 -71.4 169.1 -69 L 169.1 -69 L 169.1 -69 Q 169.1 -66.6 167.9 -65 L 167.9 -65 L 167.9 -65 Q 166.6 -63.5 164.7 -62.5 L 164.7 -62.5 L 164.7 -62.5 Q 160.6 -60.4 156.1 -60.4 L 156.1 -60.4 L 156.1 -60.4 Q 151.7 -60.4 149.1 -61.3 L 149.1 -61.3 L 149.1 -61.3 Q 146.5 -62.3 144.8 -64.1 L 144.8 -64.1 L 144.8 -64.1 Q 141.4 -67.5 141.4 -73.7 L 141.4 -73.7 L 141.4 -73.7 Q 141.4 -83.3 146.7 -89.2 L 146.7 -89.2 L 146.7 -89.2 Q 152.3 -95.6 162.1 -95.6 L 162.1 -95.6 L 162.1 -95.6 Q 168.2 -95.6 171.2 -93 L 171.2 -93 L 171.2 -93 Q 173.4 -91.1 173.4 -87.9 L 173.4 -87.9 L 173.4 -87.9 Q 173.4 -76.7 154 -76.7 L 154 -76.7 L 154 -76.7 Q 153.7 -75 153.7 -73.6 L 153.7 -73.6 L 153.7 -73.6 Q 153.7 -70.7 155 -69.5 L 155 -69.5 L 155 -69.5 Q 156.3 -68.4 158.8 -68.4 L 158.8 -68.4 L 158.8 -68.4 Q 161.2 -68.4 163.8 -69.5 L 163.8 -69.5 L 163.8 -69.5 Q 166.4 -70.7 167.5 -72.5 Z M 154.4 -79.4 L 154.4 -79.4 L 154.4 -79.4 Q 159 -79.4 161.6 -82.3 L 161.6 -82.3 L 161.6 -82.3 Q 164.2 -84.9 164.2 -89.2 L 164.2 -89.2 L 164.2 -89.2 Q 164.2 -90.7 163.7 -91.5 L 163.7 -91.5 L 163.7 -91.5 Q 163.1 -92.3 162 -92.3 L 162 -92.3 L 162 -92.3 Q 160.9 -92.3 160 -91.9 L 160 -91.9 L 160 -91.9 Q 159.1 -91.5 158.1 -90.1 L 158.1 -90.1 L 158.1 -90.1 Q 155.8 -86.9 154.4 -79.4 Z M 194.7 -84.1 L 194.7 -84.1 L 194.7 -84.1 Q 195.6 -86.5 195.6 -88.5 L 195.6 -88.5 L 195.6 -88.5 Q 195.6 -92.3 192.6 -92.3 L 192.6 -92.3 L 192.6 -92.3 Q 191 -92.3 189.6 -90.9 L 189.6 -90.9 L 189.6 -90.9 Q 188.3 -89.4 188.3 -87.6 L 188.3 -87.6 L 188.3 -87.6 Q 188.3 -86.3 189.4 -85.3 L 189.4 -85.3 L 189.4 -85.3 Q 190.8 -83.9 194.6 -81.6 L 194.6 -81.6 L 194.6 -81.6 Q 198.4 -79.3 199.8 -77.4 L 199.8 -77.4 L 199.8 -77.4 Q 201.3 -75.5 201.3 -72.9 L 201.3 -72.9 L 201.3 -72.9 Q 201.3 -70.3 200 -68 L 200 -68 L 200 -68 Q 198.8 -65.6 196.5 -63.9 L 196.5 -63.9 L 196.5 -63.9 Q 191.7 -60.4 184 -60.4 L 184 -60.4 L 184 -60.4 Q 179.9 -60.4 176.7 -62.5 L 176.7 -62.5 L 176.7 -62.5 Q 173.5 -64.7 173.5 -67.1 L 173.5 -67.1 L 173.5 -67.1 Q 173.5 -69.6 175.3 -71.1 L 175.3 -71.1 L 175.3 -71.1 Q 177.1 -72.6 179.8 -72.6 L 179.8 -72.6 L 179.8 -72.6 Q 182.5 -72.6 184.2 -71.6 L 184.2 -71.6 L 184.2 -71.6 Q 183.3 -69.5 183.3 -68 L 183.3 -68 L 183.3 -68 Q 183.3 -63.8 186.9 -63.8 L 186.9 -63.8 L 186.9 -63.8 Q 188.5 -63.8 189.5 -64.8 L 189.5 -64.8 L 189.5 -64.8 Q 190.5 -65.7 190.5 -67.4 L 190.5 -67.4 L 190.5 -67.4 Q 190.5 -70.7 185 -74.1 L 185 -74.1 L 185 -74.1 Q 180.5 -77.1 179.5 -78.2 L 179.5 -78.2 L 179.5 -78.2 Q 177.8 -80.3 177.8 -82.8 L 177.8 -82.8 L 177.8 -82.8 Q 177.8 -85.4 179 -87.8 L 179 -87.8 L 179 -87.8 Q 180.2 -90.3 182.4 -92 L 182.4 -92 L 182.4 -92 Q 187.1 -95.6 195.2 -95.6 L 195.2 -95.6 L 195.2 -95.6 Q 199.4 -95.6 201.9 -93.9 L 201.9 -93.9 L 201.9 -93.9 Q 204.3 -92.2 204.3 -89.4 L 204.3 -89.4 L 204.3 -89.4 Q 204.3 -86.6 202.6 -85 L 202.6 -85 L 202.6 -85 Q 200.9 -83.4 197.9 -83.4 L 197.9 -83.4 L 197.9 -83.4 Q 195.8 -83.4 194.7 -84.1 Z M 245.8 -82.3 L 258.7 -83.4 L 258.7 -83.4 Q 254.1 -73.3 254.1 -61.6 L 254.1 -61.6 L 254.1 -61.6 Q 252.4 -60.4 249.9 -60.4 L 249.9 -60.4 L 249.9 -60.4 Q 247.3 -60.4 245.7 -61.5 L 245.7 -61.5 L 245.7 -61.5 Q 244.1 -62.7 243.8 -63.9 L 243.8 -63.9 L 243.8 -63.9 Q 242.2 -62.3 239.6 -61.3 L 239.6 -61.3 L 239.6 -61.3 Q 237 -60.4 234.3 -60.4 L 234.3 -60.4 L 234.3 -60.4 Q 231.5 -60.4 229.1 -61.3 L 229.1 -61.3 L 229.1 -61.3 Q 226.7 -62.2 224.9 -64.1 L 224.9 -64.1 L 224.9 -64.1 Q 220.8 -68.5 220.8 -76.7 L 220.8 -76.7 L 220.8 -76.7 Q 220.8 -89.5 227.6 -97.2 L 227.6 -97.2 L 227.6 -97.2 Q 234.7 -105.2 247.2 -105.2 L 247.2 -105.2 L 247.2 -105.2 Q 255.8 -105.2 258.9 -100.7 L 258.9 -100.7 L 258.9 -100.7 Q 259.8 -99.3 259.8 -97.6 L 259.8 -97.6 L 259.8 -97.6 Q 259.8 -95.9 259.1 -94.4 L 259.1 -94.4 L 259.1 -94.4 Q 258.4 -93 257.2 -91.9 L 257.2 -91.9 L 257.2 -91.9 Q 254.4 -89.3 251.1 -89.3 L 251.1 -89.3 L 251.1 -89.3 Q 249.7 -89.3 248.4 -89.7 L 248.4 -89.7 L 248.4 -89.7 Q 248.7 -91.7 248.7 -93.9 L 248.7 -93.9 L 248.7 -93.9 Q 248.7 -96.1 248.5 -97.2 L 248.5 -97.2 L 248.5 -97.2 Q 248.4 -98.2 248 -99 L 248 -99 L 248 -99 Q 247.2 -100.7 245.3 -100.7 L 245.3 -100.7 L 245.3 -100.7 Q 243.5 -100.7 241.5 -98.8 L 241.5 -98.8 L 241.5 -98.8 Q 239.5 -96.8 237.9 -93.6 L 237.9 -93.6 L 237.9 -93.6 Q 234.4 -86.5 234.4 -77.8 L 234.4 -77.8 L 234.4 -77.8 Q 234.4 -73.9 235.9 -71.1 L 235.9 -71.1 L 235.9 -71.1 Q 237.6 -68 240.5 -68 L 240.5 -68 L 240.5 -68 Q 241.5 -68 242.4 -68.5 L 242.4 -68.5 L 242.4 -68.5 Q 243.4 -69 243.8 -69.4 L 243.8 -69.4 L 245.8 -82.3 Z M 264.7 -63.6 L 264.7 -63.6 L 264.7 -63.6 Q 263.2 -65.2 262.5 -67.9 L 262.5 -67.9 L 262.5 -67.9 Q 261.8 -70.5 261.8 -74.8 L 261.8 -74.8 L 261.8 -74.8 Q 261.8 -79.1 263.3 -83 L 263.3 -83 L 263.3 -83 Q 264.8 -86.9 267.4 -89.7 L 267.4 -89.7 L 267.4 -89.7 Q 272.9 -95.6 282 -95.6 L 282 -95.6 L 282 -95.6 Q 285.3 -95.6 287.7 -94.5 L 287.7 -94.5 L 298.6 -95.6 L 293.9 -70.6 L 293.9 -70.6 Q 293.7 -69.8 293.7 -68.4 L 293.7 -68.4 L 293.7 -68.4 Q 293.7 -67 294.5 -66.1 L 294.5 -66.1 L 294.5 -66.1 Q 295.4 -65.2 296.7 -65.1 L 296.7 -65.1 L 296.7 -65.1 Q 296 -62.9 293.7 -61.6 L 293.7 -61.6 L 293.7 -61.6 Q 291.4 -60.4 288.8 -60.4 L 288.8 -60.4 L 288.8 -60.4 Q 286.1 -60.4 284.4 -61.4 L 284.4 -61.4 L 284.4 -61.4 Q 282.6 -62.3 282.1 -64 L 282.1 -64 L 282.1 -64 Q 281.1 -62.4 278.9 -61.4 L 278.9 -61.4 L 278.9 -61.4 Q 276.7 -60.4 273.8 -60.4 L 273.8 -60.4 L 273.8 -60.4 Q 270.9 -60.4 268.5 -61.1 L 268.5 -61.1 L 268.5 -61.1 Q 266.2 -61.9 264.7 -63.6 Z M 278.2 -89.5 L 278.2 -89.5 L 278.2 -89.5 Q 277.4 -88.4 276.8 -86.4 L 276.8 -86.4 L 276.8 -86.4 Q 276.1 -84.5 275.1 -79.3 L 275.1 -79.3 L 275.1 -79.3 Q 274 -74.1 274 -70.3 L 274 -70.3 L 274 -70.3 Q 274 -66.6 274.6 -65.5 L 274.6 -65.5 L 274.6 -65.5 Q 275.2 -64.5 276.2 -64.5 L 276.2 -64.5 L 276.2 -64.5 Q 278.3 -64.5 279.8 -66.4 L 279.8 -66.4 L 279.8 -66.4 Q 281.3 -68.4 281.8 -71.8 L 281.8 -71.8 L 285.2 -90.6 L 285.2 -90.6 Q 283.9 -91.7 282.3 -91.7 L 282.3 -91.7 L 282.3 -91.7 Q 280.8 -91.7 279.8 -91.2 L 279.8 -91.2 L 279.8 -91.2 Q 278.9 -90.7 278.2 -89.5 Z M 317.4 -65.2 L 317.4 -65.2 L 317.4 -65.2 Q 315.4 -60.4 309 -60.4 L 309 -60.4 L 309 -60.4 Q 305.8 -60.4 303.8 -62.6 L 303.8 -62.6 L 303.8 -62.6 Q 302.1 -64.5 302.1 -66.6 L 302.1 -66.6 L 302.1 -66.6 Q 302.1 -71.4 304.4 -81.9 L 304.4 -81.9 L 309 -106.4 L 322 -107.7 L 315.8 -75.3 L 315.8 -75.3 Q 314.7 -70.6 314.7 -68.9 L 314.7 -68.9 L 314.7 -68.9 Q 314.7 -65.3 317.4 -65.2 Z M 338.1 -65.2 L 338.1 -65.2 L 338.1 -65.2 Q 336.1 -60.4 329.8 -60.4 L 329.8 -60.4 L 329.8 -60.4 Q 326.6 -60.4 324.5 -62.6 L 324.5 -62.6 L 324.5 -62.6 Q 322.9 -64.5 322.9 -66.6 L 322.9 -66.6 L 322.9 -66.6 Q 322.9 -71.4 325.1 -81.9 L 325.1 -81.9 L 329.8 -106.4 L 342.8 -107.7 L 336.6 -75.3 L 336.6 -75.3 Q 335.5 -70.6 335.5 -68.9 L 335.5 -68.9 L 335.5 -68.9 Q 335.5 -65.3 338.1 -65.2 Z M 369.5 -72.5 L 369.5 -72.5 L 369.5 -72.5 Q 371.1 -71.4 371.1 -69 L 371.1 -69 L 371.1 -69 Q 371.1 -66.6 369.8 -65 L 369.8 -65 L 369.8 -65 Q 368.6 -63.5 366.6 -62.5 L 366.6 -62.5 L 366.6 -62.5 Q 362.5 -60.4 358.1 -60.4 L 358.1 -60.4 L 358.1 -60.4 Q 353.7 -60.4 351.1 -61.3 L 351.1 -61.3 L 351.1 -61.3 Q 348.5 -62.3 346.8 -64.1 L 346.8 -64.1 L 346.8 -64.1 Q 343.4 -67.5 343.4 -73.7 L 343.4 -73.7 L 343.4 -73.7 Q 343.4 -83.3 348.7 -89.2 L 348.7 -89.2 L 348.7 -89.2 Q 354.3 -95.6 364.1 -95.6 L 364.1 -95.6 L 364.1 -95.6 Q 370.2 -95.6 373.2 -93 L 373.2 -93 L 373.2 -93 Q 375.4 -91.1 375.4 -87.9 L 375.4 -87.9 L 375.4 -87.9 Q 375.4 -76.7 356 -76.7 L 356 -76.7 L 356 -76.7 Q 355.7 -75 355.7 -73.6 L 355.7 -73.6 L 355.7 -73.6 Q 355.7 -70.7 357 -69.5 L 357 -69.5 L 357 -69.5 Q 358.3 -68.4 360.8 -68.4 L 360.8 -68.4 L 360.8 -68.4 Q 363.2 -68.4 365.8 -69.5 L 365.8 -69.5 L 365.8 -69.5 Q 368.4 -70.7 369.5 -72.5 Z M 356.4 -79.4 L 356.4 -79.4 L 356.4 -79.4 Q 360.9 -79.4 363.6 -82.3 L 363.6 -82.3 L 363.6 -82.3 Q 366.2 -84.9 366.2 -89.2 L 366.2 -89.2 L 366.2 -89.2 Q 366.2 -90.7 365.6 -91.5 L 365.6 -91.5 L 365.6 -91.5 Q 365.1 -92.3 364 -92.3 L 364 -92.3 L 364 -92.3 Q 362.9 -92.3 362 -91.9 L 362 -91.9 L 362 -91.9 Q 361.1 -91.5 360.1 -90.1 L 360.1 -90.1 L 360.1 -90.1 Q 357.7 -86.9 356.4 -79.4 Z M 397.6 -79.6 L 397.6 -79.6 L 397.6 -79.6 Q 399.9 -83.7 399.9 -87.9 L 399.9 -87.9 L 399.9 -87.9 Q 399.9 -90.6 397.9 -90.6 L 397.9 -90.6 L 397.9 -90.6 Q 396.4 -90.6 394.8 -88 L 394.8 -88 L 394.8 -88 Q 393.1 -85.4 392.6 -82 L 392.6 -82 L 389.3 -61.6 L 376 -60.4 L 382.6 -94.3 L 393.1 -95.6 L 392 -89.1 L 392 -89.1 Q 395.1 -95.6 402.2 -95.6 L 402.2 -95.6 L 402.2 -95.6 Q 405.9 -95.6 407.9 -93.6 L 407.9 -93.6 L 407.9 -93.6 Q 409.9 -91.7 409.9 -87.8 L 409.9 -87.8 L 409.9 -87.8 Q 409.9 -83.9 407.3 -81.4 L 407.3 -81.4 L 407.3 -81.4 Q 404.7 -78.9 400.3 -78.9 L 400.3 -78.9 L 400.3 -78.9 Q 398.4 -78.9 397.6 -79.6 Z M 431.3 -68.9 L 431.3 -68.9 L 431.3 -68.9 Q 428 -65.4 421.9 -65.4 L 421.9 -65.4 L 421.9 -65.4 Q 414.3 -65.4 412.7 -71 L 412.7 -71 L 412.7 -71 Q 412.1 -72.7 412.1 -74.5 L 412.1 -74.5 L 412.1 -74.5 Q 412.1 -76.4 412.5 -78.3 L 412.5 -78.3 L 415.5 -94.3 L 428.5 -95.6 L 425 -76.9 L 425 -76.9 Q 424.9 -76.1 424.7 -75.2 L 424.7 -75.2 L 424.7 -75.2 Q 424.5 -74.3 424.5 -73.4 L 424.5 -73.4 L 424.5 -73.4 Q 424.5 -72.5 424.8 -71.9 L 424.8 -71.9 L 424.8 -71.9 Q 425.1 -71.2 425.6 -70.9 L 425.6 -70.9 L 425.6 -70.9 Q 426.4 -70.3 427.7 -70.3 L 427.7 -70.3 L 427.7 -70.3 Q 429.1 -70.3 430.3 -72 L 430.3 -72 L 430.3 -72 Q 431.5 -73.7 432 -76.6 L 432 -76.6 L 435.6 -94.3 L 448.2 -95.6 L 443.4 -70.4 L 443.4 -70.4 Q 441 -58.1 436.1 -53.3 L 436.1 -53.3 L 436.1 -53.3 Q 433.6 -50.8 430.4 -49.8 L 430.4 -49.8 L 430.4 -49.8 Q 427.2 -48.8 423 -48.8 L 423 -48.8 L 423 -48.8 Q 416.3 -48.8 412.5 -50.9 L 412.5 -50.9 L 412.5 -50.9 Q 408.6 -53 408.6 -56.5 L 408.6 -56.5 L 408.6 -56.5 Q 408.6 -59.1 410.6 -60.7 L 410.6 -60.7 L 410.6 -60.7 Q 412.6 -62.2 415.7 -62.2 L 415.7 -62.2 L 415.7 -62.2 Q 418.4 -62.2 420.4 -61 L 420.4 -61 L 420.4 -61 Q 421.6 -60.3 422.2 -59.4 L 422.2 -59.4 L 422.2 -59.4 Q 420.7 -58.1 420.7 -56 L 420.7 -56 L 420.7 -56 Q 420.7 -53.2 423.3 -53.2 L 423.3 -53.2 L 423.3 -53.2 Q 427.5 -53.2 429.9 -62.9 L 429.9 -62.9 L 429.9 -62.9 Q 430.6 -65.8 431.3 -68.9 Z" fill="url(#editing-gradient-gradient)"></path></g></g><style>text {
  font-size: 64px;
  font-family: Arial Black;
  dominant-baseline: central;
  text-anchor: middle;
}</style></svg>